<svg width="71" height="71" viewBox="0 0 71 71" fill="none" xmlns="http://www.w3.org/2000/svg">
<circle cx="35.5" cy="35.5" r="31.5" fill="#131313"/>
<path d="M35.5 -1.55175e-06C41.1023 -1.79664e-06 46.625 1.32589 51.6167 3.86927C56.6083 6.41264 60.9272 10.1013 64.2201 14.6336C67.513 19.166 69.6865 24.4133 70.5629 29.9466C71.4393 35.4799 70.9937 41.142 69.2625 46.4701C67.5313 51.7982 64.5637 56.6409 60.6023 60.6023C56.6409 64.5637 51.7982 67.5313 46.4701 69.2625C41.142 70.9937 35.4799 71.4393 29.9466 70.5629C24.4133 69.6865 19.166 67.513 14.6336 64.2201L35.5 35.5L35.5 -1.55175e-06Z" fill="white"/>
</svg>
